<?xml version="1.0" encoding="UTF-8"?>
<svg id="Layer_2" data-name="Layer 2" xmlns="http://www.w3.org/2000/svg" viewBox="0 0 305.45 305.45">
  <defs>
    <style>
      .cls-1 {
        fill: none;
        stroke: #25859e;
        stroke-miterlimit: 10;
        stroke-width: 2px;
      }
    </style>
  </defs>
  <g id="Layer_1-2" data-name="Layer 1">
    <g>
      <path class="cls-1" d="M110.1,212.28c4.16,0,7.54-3.37,7.54-7.54v-102.02c0-4.16-3.38-7.54-7.54-7.54-4.16,0-7.54,3.37-7.54,7.54v102.02c0,4.16,3.38,7.54,7.54,7.54Z"/>
      <path class="cls-1" d="M139.29,73.94h-29.2v.24h-.17c-4.16,0-7.54,3.37-7.54,7.54,0,4.16,3.38,7.54,7.54,7.54h15.43c.73,0,1.44-.11,2.11-.31h9.05c28.43,0,49.48,23.05,49.48,51.48v24.61c0,28.43-21.05,51.48-49.48,51.48h-9.87c-.42-.07-.85-.12-1.29-.12h-15.43c-4.16,0-7.54,3.38-7.54,7.54h0c0,4.16,3.38,7.54,7.54,7.54h.17v.05h29.2c35.23,0,63.79-28.56,63.79-63.79v-30.01c0-35.23-28.56-63.79-63.79-63.79Z"/>
    </g>
    <rect class="cls-1" x="1" y="1" width="303.45" height="303.45" rx="40" ry="40"/>
  </g>
</svg>